<svg xmlns="http://www.w3.org/2000/svg" width="175" height="38" viewBox="0 0 175 38">
    <defs>
        <linearGradient id="a" x1="37.969%" x2="64.146%" y1="1.969%" y2="105.639%">
            <stop offset="0%" stop-color="#09AAEE"/>
            <stop offset="100%" stop-color="#01C7FD"/>
        </linearGradient>
        <linearGradient id="b" x1="59.027%" x2="43.832%" y1="16.986%" y2="102.319%">
            <stop offset="0%" stop-color="#1889E1"/>
            <stop offset="100%" stop-color="#2B70BA"/>
        </linearGradient>
    </defs>
    <g fill="none" fill-rule="nonzero">
        <path fill="#21345A" d="M44.327 10.123h6.078l6.82 19.736 6.838-19.736h6.085l-9.876 26.575h-6.083zM74.292 10.123h5.709v26.575h-5.709zM97.352 26.771a13.219 13.219 0 0 0-3.264-1.358 43.441 43.441 0 0 1-3.841-1.284 7.631 7.631 0 0 1-3.261-2.439c-.898-1.133-1.348-2.568-1.35-4.303 0-2.143.86-3.972 2.578-5.486 1.719-1.514 3.949-2.272 6.69-2.274a12.92 12.92 0 0 1 3.14.372c.86.198 1.694.495 2.485.887.59.304 1.159.65 1.7 1.033.385.26.735.568 1.043.915l.332.371-3.392 3.608a9.143 9.143 0 0 0-.618-.636c-.265-.253-.821-.589-1.67-1.008a5.874 5.874 0 0 0-2.632-.622c-1.083 0-1.954.277-2.613.832a2.542 2.542 0 0 0-.989 2.013c0 .886.447 1.597 1.34 2.132a13.774 13.774 0 0 0 3.252 1.359c1.274.371 2.554.804 3.841 1.299a7.609 7.609 0 0 1 3.28 2.438c.899 1.134 1.348 2.568 1.348 4.304 0 2.45-.89 4.452-2.668 6.003-1.78 1.552-4.234 2.324-7.364 2.316a14.047 14.047 0 0 1-3.574-.452 12.144 12.144 0 0 1-2.843-1.088 16.947 16.947 0 0 1-1.967-1.275 7.737 7.737 0 0 1-1.22-1.09l-.425-.461 3.419-3.398c.172.198.415.453.729.766s1.013.735 2.097 1.266a7.642 7.642 0 0 0 3.398.794c1.36 0 2.43-.32 3.205-.961a3.036 3.036 0 0 0 1.154-2.439c0-.882-.446-1.593-1.34-2.134zM129.5 31.596v5.115h-19.94V10.136h19.55v5.133h-13.842v5.319h10.804v5.114h-10.804v5.892H129.5zM146.872 30.435l-2.279 6.263h-6.08l10.452-26.575h6.06l10.451 26.575h-6.078l-2.278-6.263h-10.248zm5.133-13.66l-3.244 8.721h6.468l-3.224-8.722zM169.258 10.123h5.709v26.575h-5.709z"/>
        <path fill="url(#a)" d="M9.104.371H.034L13.28 35.817h8.962z" transform="translate(0 1)"/>
        <path fill="url(#b)" d="M26.361.124L13.302 35.817h9.225l8.533-23.073z" transform="translate(0 1)"/>
    </g>
</svg>
